<svg width="114" height="33" viewBox="0 0 114 33" fill="none" xmlns="http://www.w3.org/2000/svg">
<path d="M14.6143 8.12615L14.0602 9.34168L14.0669 9.34468L14.6143 8.12615ZM17.4464 17.6909L18.5669 18.4183L18.5726 18.4094L17.4464 17.6909ZM14.6143 20.042L15.1536 21.2643L15.1618 21.2606L14.6143 20.042ZM6.54573 20.8436V19.5077H5.20987V20.8436H6.54573ZM6.54573 26V27.3359H7.88159V26H6.54573ZM2.21753 26H0.88167V27.3359H2.21753V26ZM2.21753 7.29791V5.96205H0.88167V7.29791H2.21753ZM13.038 16.4887L13.8825 17.5238L13.8905 17.5172L13.8985 17.5105L13.038 16.4887ZM13.038 11.6795L12.1775 12.7014L12.1855 12.7081L12.1936 12.7147L13.038 11.6795ZM6.54573 10.8246V9.48873H5.20987V10.8246H6.54573ZM6.54573 17.3169H5.20987V18.6528H6.54573V17.3169ZM10.3129 8.63378C11.8236 8.63378 13.0601 8.88572 14.0602 9.34166L15.1685 6.91064C13.7462 6.26226 12.1151 5.96205 10.3129 5.96205V8.63378ZM14.0669 9.34468C15.089 9.80391 15.8222 10.4287 16.3259 11.2046L18.5669 9.74993C17.7525 8.49537 16.5976 7.5527 15.1618 6.90762L14.0669 9.34468ZM16.3259 11.2046C16.8244 11.9727 17.0991 12.9138 17.0991 14.0841H19.7708C19.7708 12.4758 19.3864 11.0124 18.5669 9.74993L16.3259 11.2046ZM17.0991 14.0841C17.0991 15.2323 16.8264 16.179 16.3202 16.9725L18.5726 18.4094C19.3844 17.1367 19.7708 15.6788 19.7708 14.0841H17.0991ZM16.3259 16.9636C15.8222 17.7395 15.089 18.3643 14.0669 18.8235L15.1618 21.2606C16.5976 20.6155 17.7525 19.6728 18.5669 18.4183L16.3259 16.9636ZM14.0751 18.8198C13.0708 19.2629 11.8289 19.5077 10.3129 19.5077V22.1794C12.1098 22.1794 13.7355 21.8899 15.1536 21.2643L14.0751 18.8198ZM10.3129 19.5077H6.54573V22.1794H10.3129V19.5077ZM5.20987 20.8436V26H7.88159V20.8436H5.20987ZM6.54573 24.6641H2.21753V27.3359H6.54573V24.6641ZM3.5534 26V7.29791H0.88167V26H3.5534ZM2.21753 8.63378H10.3129V5.96205H2.21753V8.63378ZM10.0724 18.6528C11.5356 18.6528 12.875 18.3456 13.8825 17.5238L12.1936 15.4535C11.8474 15.736 11.2097 15.981 10.0724 15.981V18.6528ZM13.8985 17.5105C14.9287 16.643 15.3891 15.4379 15.3891 14.0841H12.7174C12.7174 14.7964 12.5011 15.1944 12.1775 15.4668L13.8985 17.5105ZM15.3891 14.0841C15.3891 12.7221 14.934 11.5023 13.8825 10.6444L12.1936 12.7147C12.4957 12.9611 12.7174 13.3444 12.7174 14.0841H15.3891ZM13.8985 10.6577C12.89 9.80843 11.5438 9.48873 10.0724 9.48873V12.1605C11.2015 12.1605 11.8324 12.4107 12.1775 12.7014L13.8985 10.6577ZM10.0724 9.48873H6.54573V12.1605H10.0724V9.48873ZM5.20987 10.8246V17.3169H7.88159V10.8246H5.20987ZM6.54573 18.6528H10.0724V15.981H6.54573V18.6528ZM19.9156 7.29791V5.96205H18.5798V7.29791H19.9156ZM24.2438 7.29791H25.5797V5.96205H24.2438V7.29791ZM24.2438 22.4733H22.908V23.8092H24.2438V22.4733ZM33.6216 22.4733H34.9575V21.1375H33.6216V22.4733ZM33.6216 26V27.3359H34.9575V26H33.6216ZM19.9156 26H18.5798V27.3359H19.9156V26ZM19.9156 8.63378H24.2438V5.96205H19.9156V8.63378ZM22.908 7.29791V22.4733H25.5797V7.29791H22.908ZM24.2438 23.8092H33.6216V21.1375H24.2438V23.8092ZM32.2857 22.4733V26H34.9575V22.4733H32.2857ZM33.6216 24.6641H19.9156V27.3359H33.6216V24.6641ZM21.2515 26V7.29791H18.5798V26H21.2515ZM43.0933 7.99256L42.4698 9.17398L42.4698 9.17398L43.0933 7.99256ZM46.0856 10.9849L44.9104 11.6201L44.9104 11.6201L46.0856 10.9849ZM47.1543 26V27.3359H48.4902V26H47.1543ZM42.8261 26H41.4902V27.3359H42.8261V26ZM42.8261 21.5115H44.162V20.1756H42.8261V21.5115ZM34.2766 21.5115V20.1756H32.9407V21.5115H34.2766ZM34.2766 26V27.3359H35.6124V26H34.2766ZM30.0018 26H28.666V27.3359H30.0018V26ZM42.8261 18.0383V19.3741H44.162V18.0383H42.8261ZM41.6773 11.8666L40.7114 12.7895L40.7166 12.7949L40.7219 12.8002L41.6773 11.8666ZM35.3987 11.8666L34.4329 10.9437L34.4324 10.9442L35.3987 11.8666ZM34.2766 18.0383H32.9407V19.3741H34.2766V18.0383ZM38.5781 8.31317C40.1299 8.31317 41.4131 8.6163 42.4698 9.17398L43.7168 6.81114C42.2086 6.01515 40.4817 5.64144 38.5781 5.64144V8.31317ZM42.4698 9.17398C43.5102 9.72309 44.3193 10.5265 44.9104 11.6201L47.2608 10.3497C46.427 8.80716 45.2412 7.6157 43.7168 6.81114L42.4698 9.17398ZM44.9104 11.6201C45.4944 12.7004 45.8184 14.0647 45.8184 15.7673H48.4902C48.4902 13.7294 48.1018 11.9055 47.2608 10.3497L44.9104 11.6201ZM45.8184 15.7673V26H48.4902V15.7673H45.8184ZM47.1543 24.6641H42.8261V27.3359H47.1543V24.6641ZM44.162 26V21.5115H41.4902V26H44.162ZM42.8261 20.1756H34.2766V22.8474H42.8261V20.1756ZM32.9407 21.5115V26H35.6124V21.5115H32.9407ZM34.2766 24.6641H30.0018V27.3359H34.2766V24.6641ZM31.3377 26V15.7673H28.666V26H31.3377ZM31.3377 15.7673C31.3377 14.0647 31.6617 12.7004 32.2457 11.6201L29.8953 10.3497C29.0544 11.9055 28.666 13.7294 28.666 15.7673H31.3377ZM32.2457 11.6201C32.8368 10.5265 33.6459 9.72309 34.6864 9.17398L33.4393 6.81114C31.9149 7.6157 30.7291 8.80716 29.8953 10.3497L32.2457 11.6201ZM34.6864 9.17398C35.743 8.6163 37.0262 8.31317 38.5781 8.31317V5.64144C36.6745 5.64144 34.9475 6.01515 33.4393 6.81114L34.6864 9.17398ZM44.162 18.0383V15.3665H41.4902V18.0383H44.162ZM44.162 15.3665C44.162 13.6136 43.7282 12.0539 42.6327 10.9329L40.7219 12.8002C41.1581 13.2467 41.4902 14.0203 41.4902 15.3665H44.162ZM42.6431 10.9437C41.5779 9.82897 40.1597 9.32843 38.5513 9.32843V12.0002C39.5791 12.0002 40.2448 12.3011 40.7114 12.7895L42.6431 10.9437ZM38.5513 9.32843C36.9312 9.32843 35.5015 9.82535 34.4329 10.9437L36.3645 12.7895C36.8277 12.3047 37.4998 12.0002 38.5513 12.0002V9.32843ZM34.4324 10.9442C33.3617 12.0659 32.9407 13.6212 32.9407 15.3665H35.6124C35.6124 14.0127 35.9396 13.2346 36.365 12.7889L34.4324 10.9442ZM32.9407 15.3665V18.0383H35.6124V15.3665H32.9407ZM34.2766 19.3741H42.8261V16.7024H34.2766V19.3741ZM65.7201 7.29791H67.056V5.96205H65.7201V7.29791ZM63.369 26.6145L62.4466 25.6482L62.4409 25.6537L63.369 26.6145ZM52.5218 28.2175L52.9493 26.9519L52.9416 26.9493L52.9339 26.9468L52.5218 28.2175ZM49.1554 26.374L47.9726 25.7531L47.4802 26.691L48.2812 27.3842L49.1554 26.374ZM50.8386 23.168L51.6797 22.1302L50.4135 21.1038L49.6558 22.547L50.8386 23.168ZM60.2431 24.0496L59.2772 23.1267L59.2767 23.1273L60.2431 24.0496ZM61.3919 19.2138H62.7278V15.4565L60.3559 18.3705L61.3919 19.2138ZM50.6248 19.5077L49.6487 20.4196L49.6549 20.4263L49.6612 20.4328L50.6248 19.5077ZM48.7279 7.29791V5.96205H47.392V7.29791H48.7279ZM53.0561 7.29791H54.392V5.96205H53.0561V7.29791ZM54.0981 16.7291L53.1192 17.6381L53.1192 17.6381L54.0981 16.7291ZM60.2163 16.6757L61.1609 17.6203L61.1609 17.6203L60.2163 16.6757ZM61.3919 7.29791V5.96205H60.056V7.29791H61.3919ZM64.3842 7.29791V20.1489H67.056V7.29791H64.3842ZM64.3842 20.1489C64.3842 22.7126 63.6772 24.4736 62.4466 25.6482L64.2914 27.5808C66.1956 25.7631 67.056 23.2136 67.056 20.1489H64.3842ZM62.4409 25.6537C61.1843 26.8674 59.3878 27.5496 56.8767 27.5496V30.2213C59.8871 30.2213 62.4188 29.3896 64.2971 27.5753L62.4409 25.6537ZM56.8767 27.5496C55.4169 27.5496 54.1119 27.3447 52.9493 26.9519L52.0942 29.4831C53.5677 29.9809 55.166 30.2213 56.8767 30.2213V27.5496ZM52.9339 26.9468C51.7635 26.5672 50.8041 26.0342 50.0295 25.3639L48.2812 27.3842C49.3591 28.3169 50.6439 29.0129 52.1096 29.4882L52.9339 26.9468ZM50.3382 26.995L52.0213 23.7889L49.6558 22.547L47.9726 25.7531L50.3382 26.995ZM49.9974 24.2058C51.9372 25.778 54.2143 26.5611 56.7698 26.5611V23.8893C54.8012 23.8893 53.1242 23.3009 51.6797 22.1302L49.9974 24.2058ZM56.7698 26.5611C58.5376 26.5611 60.1145 26.119 61.2094 24.972L59.2767 23.1273C58.8754 23.5477 58.1368 23.8893 56.7698 23.8893V26.5611ZM61.2089 24.9725C62.3069 23.8235 62.7278 22.1959 62.7278 20.3627H60.056C60.056 21.8423 59.711 22.6728 59.2772 23.1267L61.2089 24.9725ZM62.7278 20.3627V19.2138H60.056V20.3627H62.7278ZM60.3559 18.3705C59.4036 19.5404 58.0494 20.1756 56.1019 20.1756V22.8474C58.7141 22.8474 60.8866 21.9508 62.4279 20.0571L60.3559 18.3705ZM56.1019 20.1756C53.9895 20.1756 52.5534 19.5877 51.5885 18.5826L49.6612 20.4328C51.2611 22.0995 53.4764 22.8474 56.1019 22.8474V20.1756ZM51.601 18.5958C50.6409 17.568 50.0638 15.9994 50.0638 13.6833H47.392C47.392 16.4257 48.0796 18.74 49.6487 20.4196L51.601 18.5958ZM50.0638 13.6833V7.29791H47.392V13.6833H50.0638ZM48.7279 8.63378H53.0561V5.96205H48.7279V8.63378ZM51.7202 7.29791V13.4162H54.392V7.29791H51.7202ZM51.7202 13.4162C51.7202 15.0693 52.1127 16.5542 53.1192 17.6381L55.077 15.8201C54.6942 15.4078 54.392 14.6841 54.392 13.4162H51.7202ZM53.1192 17.6381C54.1247 18.721 55.496 19.1871 57.037 19.1871V16.5154C56.0487 16.5154 55.4607 16.2334 55.077 15.8201L53.1192 17.6381ZM57.037 19.1871C58.6494 19.1871 60.0766 18.7046 61.1609 17.6203L59.2717 15.7311C58.7886 16.2142 58.0963 16.5154 57.037 16.5154V19.1871ZM61.1609 17.6203C62.2861 16.4951 62.7278 14.9083 62.7278 13.1223H60.056C60.056 14.5067 59.714 15.2888 59.2717 15.7311L61.1609 17.6203ZM62.7278 13.1223V7.29791H60.056V13.1223H62.7278ZM61.3919 8.63378H65.7201V5.96205H61.3919V8.63378Z" fill="white"/>
<path d="M95.5723 8.2V25H91.6842V11.32H88.3243V8.2H95.5723ZM105.691 25.288C104.299 25.288 103.059 24.944 101.971 24.256C100.883 23.568 100.027 22.576 99.4027 21.28C98.7947 19.968 98.4907 18.408 98.4907 16.6C98.4907 14.792 98.7947 13.24 99.4027 11.944C100.027 10.632 100.883 9.632 101.971 8.944C103.059 8.256 104.299 7.912 105.691 7.912C107.083 7.912 108.323 8.256 109.411 8.944C110.499 9.632 111.347 10.632 111.955 11.944C112.579 13.24 112.891 14.792 112.891 16.6C112.891 18.408 112.579 19.968 111.955 21.28C111.347 22.576 110.499 23.568 109.411 24.256C108.323 24.944 107.083 25.288 105.691 25.288ZM105.691 22C106.715 22 107.515 21.56 108.091 20.68C108.683 19.8 108.979 18.44 108.979 16.6C108.979 14.76 108.683 13.4 108.091 12.52C107.515 11.64 106.715 11.2 105.691 11.2C104.683 11.2 103.883 11.64 103.291 12.52C102.715 13.4 102.427 14.76 102.427 16.6C102.427 18.44 102.715 19.8 103.291 20.68C103.883 21.56 104.683 22 105.691 22Z" fill="white"/>
<path d="M95.5723 8.2H96.5723V7.2H95.5723V8.2ZM95.5723 25V26H96.5723V25H95.5723ZM91.6842 25H90.6842V26H91.6842V25ZM91.6842 11.32H92.6842V10.32H91.6842V11.32ZM88.3243 11.32H87.3243V12.32H88.3243V11.32ZM88.3243 8.2V7.2H87.3243V8.2H88.3243ZM94.5723 8.2V25H96.5723V8.2H94.5723ZM95.5723 24H91.6842V26H95.5723V24ZM92.6842 25V11.32H90.6842V25H92.6842ZM91.6842 10.32H88.3243V12.32H91.6842V10.32ZM89.3243 11.32V8.2H87.3243V11.32H89.3243ZM88.3243 9.2H95.5723V7.2H88.3243V9.2ZM101.971 24.256L102.505 23.4108L102.505 23.4108L101.971 24.256ZM99.4027 21.28L98.4954 21.7005L98.4985 21.7072L98.5017 21.7138L99.4027 21.28ZM99.4027 11.944L98.4996 11.5145L98.4974 11.5193L99.4027 11.944ZM101.971 8.944L102.505 9.78919L102.505 9.78919L101.971 8.944ZM109.411 8.944L108.876 9.78919L108.876 9.78919L109.411 8.944ZM111.955 11.944L111.047 12.3645L111.05 12.3712L111.054 12.3778L111.955 11.944ZM111.955 21.28L111.052 20.8505L111.049 20.8553L111.955 21.28ZM109.411 24.256L108.876 23.4108L108.876 23.4108L109.411 24.256ZM108.091 20.68L107.261 20.1218L107.254 20.1323L108.091 20.68ZM108.091 12.52L107.254 13.0677L107.261 13.0782L108.091 12.52ZM103.291 12.52L102.461 11.9618L102.454 11.9723L103.291 12.52ZM103.291 20.68L102.454 21.2277L102.461 21.2382L103.291 20.68ZM105.691 24.288C104.472 24.288 103.42 23.9894 102.505 23.4108L101.436 25.1012C102.697 25.8986 104.125 26.288 105.691 26.288V24.288ZM102.505 23.4108C101.594 22.8344 100.856 21.9938 100.304 20.8462L98.5017 21.7138C99.1971 23.1582 100.172 24.3016 101.436 25.1012L102.505 23.4108ZM100.31 20.8595C99.7763 19.708 99.4907 18.2981 99.4907 16.6H97.4907C97.4907 18.5179 97.813 20.228 98.4954 21.7005L100.31 20.8595ZM99.4907 16.6C99.4907 14.9014 99.7765 13.5016 100.308 12.3687L98.4974 11.5193C97.8129 12.9784 97.4907 14.6826 97.4907 16.6H99.4907ZM100.306 12.3735C100.859 11.2095 101.597 10.3637 102.505 9.78919L101.436 8.09881C100.169 8.90034 99.194 10.0545 98.4996 11.5145L100.306 12.3735ZM102.505 9.78919C103.42 9.21055 104.472 8.912 105.691 8.912V6.912C104.125 6.912 102.697 7.30145 101.436 8.09881L102.505 9.78919ZM105.691 8.912C106.909 8.912 107.961 9.21055 108.876 9.78919L109.945 8.09881C108.684 7.30145 107.256 6.912 105.691 6.912V8.912ZM108.876 9.78919C109.782 10.3621 110.51 11.2047 111.047 12.3645L112.862 11.5235C112.183 10.0593 111.215 8.90193 109.945 8.09881L108.876 9.78919ZM111.054 12.3778C111.598 13.5083 111.891 14.9047 111.891 16.6H113.891C113.891 14.6793 113.559 12.9717 112.856 11.5102L111.054 12.3778ZM111.891 16.6C111.891 18.2948 111.598 19.7014 111.052 20.8505L112.858 21.7095C113.559 20.2346 113.891 18.5212 113.891 16.6H111.891ZM111.049 20.8553C110.513 21.9986 109.785 22.8359 108.876 23.4108L109.945 25.1012C111.212 24.3001 112.18 23.1534 112.86 21.7047L111.049 20.8553ZM108.876 23.4108C107.961 23.9894 106.909 24.288 105.691 24.288V26.288C107.256 26.288 108.684 25.8986 109.945 25.1012L108.876 23.4108ZM105.691 23C107.063 23 108.173 22.3807 108.927 21.2277L107.254 20.1323C106.857 20.7393 106.366 21 105.691 21V23ZM108.92 21.2382C109.678 20.1114 109.979 18.5097 109.979 16.6H107.979C107.979 18.3703 107.687 19.4886 107.261 20.1218L108.92 21.2382ZM109.979 16.6C109.979 14.6903 109.678 13.0886 108.92 11.9618L107.261 13.0782C107.687 13.7114 107.979 14.8297 107.979 16.6H109.979ZM108.927 11.9723C108.173 10.8193 107.063 10.2 105.691 10.2V12.2C106.366 12.2 106.857 12.4607 107.254 13.0677L108.927 11.9723ZM105.691 10.2C104.33 10.2 103.227 10.8228 102.461 11.9618L104.12 13.0782C104.538 12.4572 105.036 12.2 105.691 12.2V10.2ZM102.454 11.9723C101.718 13.0966 101.427 14.6935 101.427 16.6H103.427C103.427 14.8265 103.711 13.7034 104.127 13.0677L102.454 11.9723ZM101.427 16.6C101.427 18.5065 101.718 20.1034 102.454 21.2277L104.127 20.1323C103.711 19.4966 103.427 18.3735 103.427 16.6H101.427ZM102.461 21.2382C103.227 22.3772 104.33 23 105.691 23V21C105.036 21 104.538 20.7428 104.12 20.1218L102.461 21.2382Z" fill="white"/>
</svg>
