<svg width="32" height="32" viewBox="0 0 32 32" fill="none" xmlns="http://www.w3.org/2000/svg">
<rect x="0.5" y="8.5" width="31" height="23" rx="3.5" stroke="white"/>
<path fill-rule="evenodd" clip-rule="evenodd" d="M23 8H24C24 3.58172 20.4183 0 16 0C11.5817 0 8 3.58172 8 8H9C9 4.13401 12.134 1 16 1C19.866 1 23 4.13401 23 8Z" fill="white"/>
<mask id="path-3-inside-1_1701_6330" fill="white">
<path fill-rule="evenodd" clip-rule="evenodd" d="M18 19.2361C18.6137 18.6868 19 17.8885 19 17C19 15.3431 17.6569 14 16 14C14.3431 14 13 15.3431 13 17C13 17.8885 13.3863 18.6868 14 19.2361V25H18V19.2361Z"/>
</mask>
<path d="M18 19.2361L17.3331 18.491L17 18.7891V19.2361H18ZM14 19.2361H15V18.7891L14.6669 18.491L14 19.2361ZM14 25H13V26H14V25ZM18 25V26H19V25H18ZM18 17C18 17.5922 17.7439 18.1233 17.3331 18.491L18.6669 19.9812C19.4836 19.2502 20 18.1848 20 17H18ZM16 15C17.1046 15 18 15.8954 18 17H20C20 14.7909 18.2091 13 16 13V15ZM14 17C14 15.8954 14.8954 15 16 15V13C13.7909 13 12 14.7909 12 17H14ZM14.6669 18.491C14.2562 18.1233 14 17.5922 14 17H12C12 18.1848 12.5164 19.2502 13.3331 19.9812L14.6669 18.491ZM15 25V19.2361H13V25H15ZM18 24H14V26H18V24ZM17 19.2361V25H19V19.2361H17Z" fill="white" mask="url(#path-3-inside-1_1701_6330)"/>
</svg>
