<svg width="24" height="24" viewBox="0 0 24 24" fill="none" xmlns="http://www.w3.org/2000/svg">
<path fill-rule="evenodd" clip-rule="evenodd" d="M3.75 0C3.33579 0 3 0.335787 3 0.75V1.5H1.875C1.66789 1.5 1.5 1.66789 1.5 1.875C1.5 2.08211 1.66789 2.25 1.875 2.25H3V3.75H2C0.895431 3.75 0 4.64543 0 5.75V22C0 23.1046 0.89543 24 2 24H22C23.1046 24 24 23.1046 24 22V5.75C24 4.64543 23.1046 3.75 22 3.75H21V2.25H22.125C22.3321 2.25 22.5 2.08211 22.5 1.875C22.5 1.66789 22.3321 1.5 22.125 1.5H21V0.75C21 0.335786 20.6642 0 20.25 0C19.8358 0 19.5 0.335787 19.5 0.75V1.5H16.5V0.75C16.5 0.335786 16.1642 0 15.75 0C15.3358 0 15 0.335787 15 0.75V1.5H9V0.75C9 0.335786 8.66421 0 8.25 0C7.83579 0 7.5 0.335787 7.5 0.75V1.5H4.5V0.75C4.5 0.335786 4.16421 0 3.75 0ZM9 2.25H15V3.75H9V2.25ZM16.5 2.25V3.75H19.5V2.25H16.5ZM7.5 2.25V3.75H4.5V2.25H7.5ZM2 4.75H22C22.5523 4.75 23 5.19771 23 5.75V22C23 22.5523 22.5523 23 22 23H2C1.44772 23 1 22.5523 1 22V5.75C1 5.19772 1.44772 4.75 2 4.75ZM1.5 7.125C1.5 6.91789 1.66789 6.75 1.875 6.75H22.125C22.3321 6.75 22.5 6.91789 22.5 7.125C22.5 7.33211 22.3321 7.5 22.125 7.5H1.875C1.66789 7.5 1.5 7.33211 1.5 7.125ZM4.75 9.75C4.19772 9.75 3.75 10.1977 3.75 10.75V11.75C3.75 12.3023 4.19772 12.75 4.75 12.75H5.75C6.30228 12.75 6.75 12.3023 6.75 11.75V10.75C6.75 10.1977 6.30228 9.75 5.75 9.75H4.75ZM3.75 15.25C3.75 14.6977 4.19772 14.25 4.75 14.25H5.75C6.30228 14.25 6.75 14.6977 6.75 15.25V16.25C6.75 16.8023 6.30228 17.25 5.75 17.25H4.75C4.19772 17.25 3.75 16.8023 3.75 16.25V15.25ZM4.75 18.75C4.19772 18.75 3.75 19.1977 3.75 19.75V20.75C3.75 21.3023 4.19772 21.75 4.75 21.75H5.75C6.30228 21.75 6.75 21.3023 6.75 20.75V19.75C6.75 19.1977 6.30228 18.75 5.75 18.75H4.75ZM10.5 10.75C10.5 10.1977 10.9477 9.75 11.5 9.75H12.5C13.0523 9.75 13.5 10.1977 13.5 10.75V11.75C13.5 12.3023 13.0523 12.75 12.5 12.75H11.5C10.9477 12.75 10.5 12.3023 10.5 11.75V10.75ZM11.5 14.25C10.9477 14.25 10.5 14.6977 10.5 15.25V16.25C10.5 16.8023 10.9477 17.25 11.5 17.25H12.5C13.0523 17.25 13.5 16.8023 13.5 16.25V15.25C13.5 14.6977 13.0523 14.25 12.5 14.25H11.5ZM10.5 19.75C10.5 19.1977 10.9477 18.75 11.5 18.75H12.5C13.0523 18.75 13.5 19.1977 13.5 19.75V20.75C13.5 21.3023 13.0523 21.75 12.5 21.75H11.5C10.9477 21.75 10.5 21.3023 10.5 20.75V19.75ZM18.25 9.75C17.6977 9.75 17.25 10.1977 17.25 10.75V11.75C17.25 12.3023 17.6977 12.75 18.25 12.75H19.25C19.8023 12.75 20.25 12.3023 20.25 11.75V10.75C20.25 10.1977 19.8023 9.75 19.25 9.75H18.25ZM17.25 15.25C17.25 14.6977 17.6977 14.25 18.25 14.25H19.25C19.8023 14.25 20.25 14.6977 20.25 15.25V16.25C20.25 16.8023 19.8023 17.25 19.25 17.25H18.25C17.6977 17.25 17.25 16.8023 17.25 16.25V15.25ZM18.25 18.75C17.6977 18.75 17.25 19.1977 17.25 19.75V20.75C17.25 21.3023 17.6977 21.75 18.25 21.75H19.25C19.8023 21.75 20.25 21.3023 20.25 20.75V19.75C20.25 19.1977 19.8023 18.75 19.25 18.75H18.25Z" fill="white"/>
</svg>
