<svg width="12" height="12" viewBox="0 0 12 12" fill="none" xmlns="http://www.w3.org/2000/svg">
<path d="M11.7998 0.200197C11.5329 -0.066732 11.1001 -0.0667316 10.8332 0.200197L6 5.03337L1.16683 0.200196C0.899902 -0.0667322 0.467125 -0.066732 0.200197 0.200196C-0.066732 0.467125 -0.066732 0.899902 0.200196 1.16683L5.03337 6L0.200196 10.8332C-0.0667319 11.1001 -0.0667324 11.5329 0.200196 11.7998C0.467125 12.0667 0.899902 12.0667 1.16683 11.7998L6 6.96663L10.8332 11.7998C11.1001 12.0667 11.5329 12.0667 11.7998 11.7998C12.0667 11.5329 12.0667 11.1001 11.7998 10.8332L6.96663 6L11.7998 1.16683C12.0667 0.899902 12.0667 0.467126 11.7998 0.200197Z" fill="white"/>
</svg>
