<svg width="40" height="32" viewBox="0 0 40 32" fill="none" xmlns="http://www.w3.org/2000/svg">
<path fill-rule="evenodd" clip-rule="evenodd" d="M24 2H4C2.89543 2 2 2.89543 2 4V16C2 17.1046 2.89543 18 4 18H6V8C6 5.79086 7.79086 4 10 4H26C26 2.89543 25.1046 2 24 2ZM28 4H30C32.2091 4 34 5.79086 34 8H36C38.2091 8 40 9.79086 40 12V24C40 26.2091 38.2091 28 36 28H27V30H31C31.5523 30 32 30.4477 32 31C32 31.5523 31.5523 32 31 32H26H21C20.4477 32 20 31.5523 20 31C20 30.4477 20.4477 30 21 30H25V28H16C13.7909 28 12 26.2091 12 24H10C7.79086 24 6 22.2091 6 20H4C1.79086 20 0 18.2091 0 16V4C0 1.79086 1.79086 0 4 0H24C26.2091 0 28 1.79086 28 4ZM10 6H30C31.1046 6 32 6.89543 32 8H16C13.7909 8 12 9.79086 12 12V22H10C8.89543 22 8 21.1046 8 20V8C8 6.89543 8.89543 6 10 6Z" fill="white"/>
</svg>
