<svg width="16" height="16" viewBox="0 0 16 16" fill="none" xmlns="http://www.w3.org/2000/svg">
<path d="M0.659667 15.3403C0.818789 15.4995 0.958107 15.5076 0.997861 15.4953L0.659667 15.3403ZM0.659667 15.3403C0.500545 15.1812 0.492449 15.0419 0.504683 15.0021L0.659667 15.3403ZM12.3754 0.726824C12.6778 0.424392 13.1683 0.424392 13.4707 0.726825L15.2732 2.52926C15.5756 2.8317 15.5756 3.32216 15.2732 3.62459L5.81037 13.0874C5.75657 13.1412 5.67007 13.1412 5.61626 13.0874L2.91261 10.3837C2.8588 10.3299 2.8588 10.2434 2.9126 10.1896L12.3754 0.726824ZM4.46679 14.4223L0.997926 15.4953L0.504703 15.0021L1.57771 11.5332C1.58092 11.5329 1.58469 11.5326 1.58908 11.5324C1.6491 11.5306 1.77525 11.5618 1.90407 11.6906L4.30937 14.0959C4.43818 14.2247 4.46936 14.3509 4.46755 14.4109C4.46742 14.4153 4.46714 14.4191 4.46679 14.4223Z" stroke="white" stroke-opacity="0.5"/>
</svg>
