<svg width="32" height="32" viewBox="0 0 32 32" fill="none" xmlns="http://www.w3.org/2000/svg">
<path fill-rule="evenodd" clip-rule="evenodd" d="M4 1H18.5C20.1569 1 21.5 2.34314 21.5 4V15.5H13.5001V16.5H21.5V28C21.5 29.6569 20.1569 31 18.5 31H4C2.34314 31 1 29.6569 1 28V4C1 2.34315 2.34315 1 4 1ZM22.5 16.5V28C22.5 30.2091 20.7092 32 18.5 32H4C1.79086 32 0 30.2091 0 28V4C0 1.79086 1.79086 0 4 0H18.5C20.7092 0 22.5 1.79086 22.5 4V15.5H30.2931L27.9646 13.1716C27.7694 12.9763 27.7694 12.6597 27.9646 12.4645C28.1599 12.2692 28.4765 12.2692 28.6717 12.4645L31.8537 15.6464C32.049 15.8417 32.049 16.1583 31.8537 16.3536L28.6717 19.5355C28.4765 19.7308 28.1599 19.7308 27.9646 19.5355C27.7694 19.3403 27.7694 19.0237 27.9646 18.8284L30.2931 16.5H22.5Z" fill="white"/>
</svg>
