<svg width="20" height="20" viewBox="0 0 20 20" fill="none" xmlns="http://www.w3.org/2000/svg">
<path d="M17.7331 2.26693C17.3772 1.91102 16.8001 1.91102 16.4442 2.26693L10 8.71115L3.55577 2.26693C3.19987 1.91102 2.62283 1.91102 2.26693 2.26693C1.91102 2.62283 1.91102 3.19987 2.26693 3.55577L8.71115 10L2.26693 16.4442C1.91102 16.8001 1.91102 17.3772 2.26693 17.7331C2.62283 18.089 3.19987 18.089 3.55577 17.7331L10 11.2888L16.4442 17.7331C16.8001 18.089 17.3772 18.089 17.7331 17.7331C18.089 17.3772 18.089 16.8001 17.7331 16.4442L11.2888 10L17.7331 3.55577C18.089 3.19987 18.089 2.62283 17.7331 2.26693Z" fill="white" fill-opacity="0.5"/>
</svg>
