<svg width="30" height="30" viewBox="0 0 30 30" fill="none" xmlns="http://www.w3.org/2000/svg">
<path d="M25.9362 14.9993C25.9362 14.4959 25.5282 14.0879 25.0249 14.0879L15.9114 14.0879L15.9114 4.97439C15.9114 4.47107 15.5033 4.06304 15 4.06304C14.4967 4.06304 14.0886 4.47107 14.0886 4.97439L14.0886 14.0879L4.97514 14.0879C4.47181 14.0879 4.06379 14.4959 4.06379 14.9993C4.06379 15.5026 4.47181 15.9106 4.97514 15.9106H14.0886L14.0886 25.0241C14.0886 25.5274 14.4967 25.9355 15 25.9355C15.5033 25.9355 15.9114 25.5274 15.9114 25.0241L15.9114 15.9106L25.0249 15.9106C25.5282 15.9106 25.9362 15.5026 25.9362 14.9993Z" fill="white" fill-opacity="0.5"/>
</svg>
