<svg width="24" height="24" viewBox="0 0 24 24" fill="none" xmlns="http://www.w3.org/2000/svg">
<mask id="path-1-inside-1_1701_6387" fill="white">
<path d="M0 11C0 9.89543 0.895431 9 2 9H22C23.1046 9 24 9.89543 24 11V19C24 20.1046 23.1046 21 22 21H2C0.89543 21 0 20.1046 0 19V11Z"/>
</mask>
<path d="M-1 8C-1 6.34315 0.343146 5 2 5H22C23.6569 5 25 6.34315 25 8L23 13C23 13 22.5523 13 22 13H2C1.44772 13 1 13 1 13L-1 8ZM25 19C25 20.6569 23.6569 22 22 22H2C0.343146 22 -1 20.6569 -1 19H1C1 19.5523 1.44772 20 2 20H22C22.5523 20 23 19.5523 23 19H25ZM2 22C0.343146 22 -1 20.6569 -1 19V8C-1 6.34315 0.343146 5 2 5V13C1.44772 13 1 13 1 13V19C1 19.5523 1.44772 20 2 20V22ZM22 5C23.6569 5 25 6.34315 25 8V19C25 20.6569 23.6569 22 22 22V20C22.5523 20 23 19.5523 23 19V13C23 13 22.5523 13 22 13V5Z" fill="white" mask="url(#path-1-inside-1_1701_6387)"/>
<path fill-rule="evenodd" clip-rule="evenodd" d="M5 21V23H19V21H20V23V24H19H5H4V23V21H5ZM19 9V4.41421L17.2929 2.70711L15.5858 1H12H5V9H4V1V0H5H12H16L18 2L20 4V9H19Z" fill="white"/>
</svg>
