<svg width="33" height="32" viewBox="0 0 33 32" fill="none" xmlns="http://www.w3.org/2000/svg">
<path fill-rule="evenodd" clip-rule="evenodd" d="M27.5942 26.0957C30.0207 23.4307 31.5 19.8881 31.5 16C31.5 7.71573 24.7843 1 16.5 1C8.21573 1 1.5 7.71573 1.5 16C1.5 19.8881 2.97933 23.4307 5.40584 26.0957C6.1589 22.2 10.839 19.2 16.5 19.2C22.161 19.2 26.8411 22.2 27.5942 26.0957ZM27.6954 27.4308C30.6603 24.5266 32.5 20.4781 32.5 16C32.5 7.16344 25.3366 0 16.5 0C7.66344 0 0.5 7.16344 0.5 16C0.5 24.8366 7.66344 32 16.5 32C20.6421 32 24.4166 30.426 27.258 27.8435C27.4064 27.7086 27.5522 27.571 27.6954 27.4308ZM26.6959 27.0021C26.624 25.2716 25.6114 23.6234 23.8384 22.3569C21.9997 21.0436 19.4084 20.2 16.5 20.2C13.5916 20.2 11.0003 21.0436 9.16164 22.3569C7.38856 23.6234 6.37598 25.2716 6.30411 27.0021C8.98015 29.4832 12.5629 31 16.5 31C20.4371 31 24.0199 29.4832 26.6959 27.0021ZM16.4996 16.5998C19.4819 16.5998 21.8996 14.1821 21.8996 11.1998C21.8996 8.21747 19.4819 5.7998 16.4996 5.7998C13.5173 5.7998 11.0996 8.21747 11.0996 11.1998C11.0996 14.1821 13.5173 16.5998 16.4996 16.5998ZM16.4996 17.5998C20.0342 17.5998 22.8996 14.7344 22.8996 11.1998C22.8996 7.66518 20.0342 4.7998 16.4996 4.7998C12.965 4.7998 10.0996 7.66518 10.0996 11.1998C10.0996 14.7344 12.965 17.5998 16.4996 17.5998Z" fill="white"/>
</svg>
