<svg width="52" height="36" viewBox="0 0 52 36" fill="none" xmlns="http://www.w3.org/2000/svg">
<path fill-rule="evenodd" clip-rule="evenodd" d="M24.5 13H4.5C2.84315 13 1.5 14.3431 1.5 16V28C1.5 29.6569 2.84315 31 4.5 31H14.5H24.5C26.1569 31 27.5 29.6569 27.5 28V16C27.5 14.3431 26.1569 13 24.5 13ZM13.5 32H4.5C2.29086 32 0.5 30.2091 0.5 28V16C0.5 13.7909 2.29086 12 4.5 12H24.5C26.7091 12 28.5 13.7909 28.5 16V28C28.5 30.2091 26.7091 32 24.5 32H15.5V35H20C20.2761 35 20.5 35.2239 20.5 35.5C20.5 35.7761 20.2761 36 20 36H14.5H9C8.72386 36 8.5 35.7761 8.5 35.5C8.5 35.2239 8.72386 35 9 35H13.5V32Z" fill="white"/>
<path fill-rule="evenodd" clip-rule="evenodd" d="M48.5 5H35.5C34.3954 5 33.5 5.89543 33.5 7V15C33.5 16.1046 34.3954 17 35.5 17H41.5H42.5H48.5C49.6046 17 50.5 16.1046 50.5 15V7C50.5 5.89543 49.6046 5 48.5 5ZM42.5 18H48.5C50.1569 18 51.5 16.6569 51.5 15V7C51.5 5.34315 50.1569 4 48.5 4H35.5C33.8431 4 32.5 5.34315 32.5 7V15C32.5 16.6569 33.8431 18 35.5 18H41.5V19H39C38.7239 19 38.5 19.2239 38.5 19.5C38.5 19.7761 38.7239 20 39 20H41.5H42.5H45C45.2761 20 45.5 19.7761 45.5 19.5C45.5 19.2239 45.2761 19 45 19H42.5V18Z" fill="white"/>
<path d="M13.5285 9.83359C13.4366 10.094 13.5732 10.3796 13.8336 10.4715C14.094 10.5634 14.3796 10.4268 14.4715 10.1664L13.5285 9.83359ZM30.8 4.9C31.0209 4.73432 31.0657 4.42092 30.9 4.2L28.2 0.600005C28.0343 0.379091 27.7209 0.334319 27.5 0.500005C27.2791 0.66569 27.2343 0.979091 27.4 1.2L29.8 4.4L26.6 6.8C26.3791 6.96569 26.3343 7.27909 26.5 7.5C26.6657 7.72092 26.9791 7.76569 27.2 7.6L30.8 4.9ZM14.4715 10.1664C15.3638 7.63814 19.3693 3.41498 30.4293 4.99498L30.5707 4.00503C19.2307 2.38503 14.6362 6.6952 13.5285 9.83359L14.4715 10.1664Z" fill="white"/>
</svg>
