<svg width="34" height="32" viewBox="0 0 34 32" fill="none" xmlns="http://www.w3.org/2000/svg">
<path fill-rule="evenodd" clip-rule="evenodd" d="M31.6617 16C31.6617 24.2795 24.9145 31 16.5808 31C8.24716 31 1.5 24.2795 1.5 16C1.5 7.72047 8.24716 1 16.5808 1C21.1753 1 25.2876 3.04268 28.0529 6.26313L26.9959 10.2078C26.9246 10.4739 27.0835 10.7477 27.3508 10.8194C27.6181 10.891 27.8926 10.7333 27.9639 10.4671L28.8274 7.24467C30.6112 9.70902 31.6617 12.7331 31.6617 16ZM29.7484 6.81323C31.5841 9.41312 32.6617 12.5814 32.6617 16C32.6617 24.8366 25.462 32 16.5808 32C7.69964 32 0.5 24.8366 0.5 16C0.5 7.16344 7.69964 0 16.5808 0C21.4275 0 25.7733 2.13332 28.7216 5.50768C28.7381 5.51039 28.7547 5.51394 28.7712 5.51836L33.1273 6.68558C33.3946 6.7572 33.5535 7.03102 33.4822 7.29717C33.4109 7.56333 33.1364 7.72102 32.8691 7.64939L29.7484 6.81323Z" fill="white"/>
</svg>
