<svg width="16" height="17" viewBox="0 0 16 17" fill="none" xmlns="http://www.w3.org/2000/svg">
<path fill-rule="evenodd" clip-rule="evenodd" d="M11.8296 6.16873C11.8296 8.98684 9.44252 11.3375 6.41479 11.3375C3.38706 11.3375 1 8.98684 1 6.16873C1 3.35062 3.38706 1 6.41479 1C9.44252 1 11.8296 3.35062 11.8296 6.16873ZM12.8296 6.16873C12.8296 9.57563 9.95758 12.3375 6.41479 12.3375C2.872 12.3375 0 9.57563 0 6.16873C0 2.76183 2.872 0 6.41479 0C9.95758 0 12.8296 2.76183 12.8296 6.16873ZM11.8678 11.5406C11.7272 11.4055 11.4994 11.4055 11.3588 11.5406C11.2183 11.6758 11.2183 11.8949 11.3588 12.03L15.3858 15.9026C15.5264 16.0377 15.7542 16.0377 15.8948 15.9026C16.0353 15.7674 16.0353 15.5483 15.8948 15.4131L11.8678 11.5406Z" fill="white" fill-opacity="0.5"/>
</svg>
