<svg width="25" height="24" viewBox="0 0 25 24" fill="none" xmlns="http://www.w3.org/2000/svg">
<mask id="path-1-inside-1_1701_8329" fill="white">
<path fill-rule="evenodd" clip-rule="evenodd" d="M17.0785 0.118891C16.1122 -0.299199 15.0831 0.46957 14.3751 1.2488C13.7874 1.8955 12.9418 2.30119 12.0019 2.30119C11.0622 2.30119 10.2167 1.89564 9.62909 1.24913C8.92075 0.469783 7.89136 -0.299274 6.92481 0.118944C5.98362 0.526187 5.83473 1.74123 5.89108 2.76519C5.89438 2.82522 5.89606 2.88568 5.89606 2.94654C5.89606 4.73088 4.45734 6.17738 2.68259 6.17738C2.59406 6.17738 2.50638 6.17378 2.41966 6.16672C1.5087 6.09255 0.439548 6.2683 0.0958023 7.11517C-0.253962 7.97687 0.413145 8.88099 1.14072 9.46022C1.88403 10.052 2.3609 10.9673 2.3609 11.9946C2.3609 12.9492 1.94905 13.8072 1.29425 14.3987C0.524675 15.0938 -0.231892 16.1068 0.173136 17.0614C0.552325 17.9552 1.67614 18.144 2.64696 18.1334C2.65882 18.1333 2.6707 18.1332 2.68259 18.1332C4.45734 18.1332 5.89606 19.5797 5.89606 21.3641C5.89606 21.3852 5.89585 21.4063 5.89545 21.4274C5.87705 22.3901 6.0654 23.5017 6.94993 23.8822C7.90399 24.2926 8.91767 23.5352 9.6091 22.7602C10.1974 22.1008 11.0515 21.686 12.0019 21.686C12.9525 21.686 13.8067 22.101 14.3951 22.7606C15.0862 23.5354 16.0996 24.2925 17.0533 23.8822C17.9377 23.5019 18.126 22.3905 18.1074 21.428C18.107 21.4067 18.1068 21.3854 18.1068 21.3641C18.1068 19.5797 19.5455 18.1332 21.3203 18.1332C21.3325 18.1332 21.3448 18.1333 21.357 18.1334C22.3274 18.1443 23.4508 17.9557 23.8299 17.0623C24.235 16.1076 23.478 15.0946 22.708 14.3999C22.0524 13.8084 21.64 12.9499 21.64 11.9946C21.64 10.9666 22.1175 10.0508 22.8616 9.45907C23.5896 8.88022 24.2571 7.97608 23.9073 7.11434C23.5636 6.26781 22.4948 6.0922 21.5842 6.16663C21.4972 6.17375 21.4092 6.17738 21.3203 6.17738C19.5455 6.17738 18.1068 4.73088 18.1068 2.94654C18.1068 2.88548 18.1085 2.82482 18.1118 2.7646C18.1683 1.74085 18.0195 0.526042 17.0785 0.118891ZM12.001 15.2214C13.7758 15.2214 15.2145 13.7749 15.2145 11.9905C15.2145 10.2062 13.7758 8.75969 12.001 8.75969C10.2263 8.75969 8.78756 10.2062 8.78756 11.9905C8.78756 13.7749 10.2263 15.2214 12.001 15.2214Z"/>
</mask>
<path d="M21.357 18.1334L21.3457 19.1334L21.357 18.1334ZM14.3951 22.7606L15.1413 22.095L14.3951 22.7606ZM2.64696 18.1334L2.65788 19.1334L2.64696 18.1334ZM1.29425 14.3987L0.623949 13.6566L1.29425 14.3987ZM9.6091 22.7602L10.3553 23.426L9.6091 22.7602ZM5.89545 21.4274L4.89563 21.4083L5.89545 21.4274ZM9.62909 1.24913L10.3691 0.576544L9.62909 1.24913ZM18.1074 21.428L17.1076 21.4473L18.1074 21.428ZM2.41966 6.16672L2.33852 7.16342L2.41966 6.16672ZM21.5842 6.16663L21.5028 5.16996L21.5842 6.16663ZM12.0019 3.30119C13.2362 3.30119 14.3467 2.76707 15.1152 1.92128L13.635 0.576312C13.2282 1.02394 12.6474 1.30119 12.0019 1.30119V3.30119ZM8.88907 1.92172C9.65756 2.76726 10.7678 3.30119 12.0019 3.30119V1.30119C11.3566 1.30119 10.7758 1.02403 10.3691 0.576544L8.88907 1.92172ZM6.89606 2.94654C6.89606 2.86734 6.89388 2.78856 6.88957 2.71024L4.89259 2.82014C4.89489 2.86188 4.89606 2.90402 4.89606 2.94654H6.89606ZM2.68259 7.17738C5.0147 7.17738 6.89606 5.27808 6.89606 2.94654H4.89606C4.89606 4.18369 3.89998 5.17738 2.68259 5.17738V7.17738ZM2.33852 7.16342C2.45219 7.17268 2.56695 7.17738 2.68259 7.17738V5.17738C2.62118 5.17738 2.56056 5.17488 2.50081 5.17002L2.33852 7.16342ZM3.3609 11.9946C3.3609 10.651 2.73588 9.45195 1.76355 8.67787L0.517877 10.2426C1.03218 10.652 1.3609 11.2836 1.3609 11.9946H3.3609ZM1.96455 15.1408C2.82113 14.367 3.3609 13.2429 3.3609 11.9946H1.3609C1.3609 12.6556 1.07698 13.2474 0.623949 13.6566L1.96455 15.1408ZM2.68259 17.1332C2.66706 17.1332 2.65154 17.1333 2.63604 17.1335L2.65788 19.1334C2.6661 19.1333 2.67434 19.1332 2.68259 19.1332V17.1332ZM6.89606 21.3641C6.89606 19.0325 5.0147 17.1332 2.68259 17.1332V19.1332C3.89998 19.1332 4.89606 20.1269 4.89606 21.3641H6.89606ZM6.89527 21.4465C6.89579 21.4191 6.89606 21.3916 6.89606 21.3641H4.89606C4.89606 21.3788 4.89591 21.3936 4.89563 21.4083L6.89527 21.4465ZM12.0019 20.686C10.7537 20.686 9.63229 21.2322 8.86292 22.0945L10.3553 23.426C10.7626 22.9695 11.3493 22.686 12.0019 22.686V20.686ZM15.1413 22.095C14.372 21.2324 13.2504 20.686 12.0019 20.686V22.686C12.6547 22.686 13.2415 22.9696 13.6488 23.4262L15.1413 22.095ZM17.1068 21.3641C17.1068 21.3918 17.1071 21.4196 17.1076 21.4473L19.1072 21.4087C19.107 21.3938 19.1068 21.379 19.1068 21.3641H17.1068ZM21.3203 17.1332C18.9882 17.1332 17.1068 19.0325 17.1068 21.3641H19.1068C19.1068 20.1269 20.1029 19.1332 21.3203 19.1332V17.1332ZM21.3683 17.1335C21.3523 17.1333 21.3363 17.1332 21.3203 17.1332V19.1332C21.3288 19.1332 21.3373 19.1333 21.3457 19.1334L21.3683 17.1335ZM20.64 11.9946C20.64 13.2437 21.1805 14.3686 22.0381 15.1424L23.3779 13.6574C22.9243 13.2482 22.64 12.6561 22.64 11.9946H20.64ZM22.2393 8.67636C21.2658 9.45039 20.64 10.6501 20.64 11.9946H22.64C22.64 11.2831 22.9692 10.6512 23.484 10.2418L22.2393 8.67636ZM21.3203 7.17738C21.4364 7.17738 21.5516 7.17264 21.6657 7.16331L21.5028 5.16996C21.4428 5.17486 21.3819 5.17738 21.3203 5.17738V7.17738ZM17.1068 2.94654C17.1068 5.27808 18.9882 7.17738 21.3203 7.17738V5.17738C20.1029 5.17738 19.1068 4.18369 19.1068 2.94654H17.1068ZM17.1133 2.70947C17.109 2.78804 17.1068 2.86708 17.1068 2.94654H19.1068C19.1068 2.90388 19.108 2.8616 19.1103 2.81973L17.1133 2.70947ZM14.2145 11.9905C14.2145 13.2277 13.2184 14.2214 12.001 14.2214V16.2214C14.3331 16.2214 16.2145 14.3221 16.2145 11.9905H14.2145ZM12.001 9.75969C13.2184 9.75969 14.2145 10.7534 14.2145 11.9905H16.2145C16.2145 9.65899 14.3331 7.75969 12.001 7.75969V9.75969ZM9.78756 11.9905C9.78756 10.7534 10.7836 9.75969 12.001 9.75969V7.75969C9.66892 7.75969 7.78756 9.65899 7.78756 11.9905H9.78756ZM12.001 14.2214C10.7836 14.2214 9.78756 13.2277 9.78756 11.9905H7.78756C7.78756 14.3221 9.66892 16.2214 12.001 16.2214V14.2214ZM19.1103 2.81973C19.1415 2.25506 19.1226 1.56158 18.9254 0.917712C18.7238 0.259462 18.3013 -0.441617 17.4756 -0.798883L16.6814 1.03667C16.7967 1.08655 16.9191 1.19645 17.0131 1.50333C17.1114 1.82459 17.1387 2.25038 17.1133 2.70947L19.1103 2.81973ZM23.484 10.2418C23.9172 9.89729 24.3747 9.42534 24.6732 8.85922C24.9774 8.28236 25.1531 7.5245 24.8338 6.73818L22.9807 7.49051C23.0113 7.56592 23.0282 7.691 22.9041 7.92636C22.7743 8.17246 22.534 8.44199 22.2393 8.67636L23.484 10.2418ZM24.7505 17.4529C25.107 16.6127 24.9174 15.7993 24.6 15.1784C24.2878 14.5677 23.8088 14.0462 23.3779 13.6574L22.0381 15.1424C22.3773 15.4483 22.6617 15.7807 22.8192 16.0888C22.9716 16.3867 22.9579 16.5572 22.9094 16.6717L24.7505 17.4529ZM21.3457 19.1334C21.8839 19.1394 22.5393 19.0932 23.1458 18.8807C23.7664 18.6633 24.417 18.2387 24.7505 17.4529L22.9094 16.6717C22.8637 16.7793 22.7631 16.8957 22.4846 16.9932C22.192 17.0957 21.8006 17.1384 21.3683 17.1335L21.3457 19.1334ZM13.6488 23.4262C14.0369 23.8613 14.5584 24.343 15.1702 24.6561C15.7926 24.9746 16.608 25.1624 17.4485 24.8009L16.6582 22.9636C16.5449 23.0124 16.3767 23.0268 16.0812 22.8756C15.7751 22.719 15.4444 22.4347 15.1413 22.095L13.6488 23.4262ZM-0.74744 17.452C-0.41399 18.238 0.236736 18.6628 0.857466 18.8803C1.46406 19.0929 2.11966 19.1392 2.65788 19.1334L2.63604 17.1335C2.20344 17.1382 1.81173 17.0955 1.51891 16.9928C1.24023 16.8952 1.13945 16.7787 1.09371 16.6709L-0.74744 17.452ZM0.623949 13.6566C0.193397 14.0455 -0.285334 14.5671 -0.59732 15.1778C-0.914499 15.7987 -1.10384 16.612 -0.74744 17.452L1.09371 16.6709C1.04508 16.5563 1.03151 16.3857 1.18375 16.0876C1.34119 15.7794 1.62553 15.447 1.96455 15.1408L0.623949 13.6566ZM6.55479 24.8008C7.39545 25.1624 8.21095 24.9745 8.83351 24.656C9.44541 24.3429 9.96707 23.8611 10.3553 23.426L8.86292 22.0945C8.5597 22.4343 8.2288 22.7188 7.92249 22.8755C7.62684 23.0268 7.45846 23.0123 7.34507 22.9636L6.55479 24.8008ZM6.5277 -0.798826C5.70191 -0.441514 5.27934 0.259636 5.07771 0.917948C4.88049 1.56188 4.86151 2.25544 4.89259 2.82014L6.88957 2.71024C6.86429 2.25098 6.89159 1.82504 6.99003 1.50365C7.08406 1.19664 7.20652 1.08664 7.32192 1.03671L6.5277 -0.798826ZM-0.830778 6.73907C-1.14987 7.52522 -0.974395 8.28292 -0.670443 8.85978C-0.37215 9.4259 0.0849779 9.89793 0.517877 10.2426L1.76355 8.67787C1.46888 8.44328 1.22867 8.17364 1.09896 7.92746C0.974908 7.69203 0.991714 7.56682 1.02238 7.49127L-0.830778 6.73907ZM4.89563 21.4083C4.88535 21.9462 4.92928 22.5981 5.13978 23.2022C5.35519 23.8203 5.77689 24.4662 6.55479 24.8008L7.34507 22.9636C7.23843 22.9177 7.1237 22.8175 7.02839 22.544C6.92819 22.2565 6.88715 21.8712 6.89527 21.4465L4.89563 21.4083ZM10.3691 0.576544C9.97445 0.142319 9.44541 -0.341874 8.82717 -0.656361C8.19841 -0.976198 7.37535 -1.1656 6.5277 -0.798826L7.32192 1.03671C7.44082 0.985268 7.61573 0.971287 7.92039 1.12626C8.23556 1.28659 8.57539 1.5766 8.88907 1.92172L10.3691 0.576544ZM17.4485 24.8009C18.2263 24.4663 18.6479 23.8205 18.8633 23.2024C19.0738 22.5984 19.1176 21.9466 19.1072 21.4087L17.1076 21.4473C17.1158 21.8718 17.0748 22.257 16.9747 22.5444C16.8794 22.8177 16.7647 22.9178 16.6582 22.9636L17.4485 24.8009ZM2.50081 5.17002C1.9664 5.12651 1.32549 5.14917 0.730513 5.3463C0.121117 5.54821 -0.516571 5.96497 -0.830778 6.73907L1.02238 7.49127C1.05192 7.4185 1.12068 7.32395 1.35954 7.24481C1.61282 7.16089 1.96196 7.13276 2.33852 7.16342L2.50081 5.17002ZM24.8338 6.73818C24.5196 5.96427 23.8821 5.54763 23.2728 5.34583C22.6779 5.14882 22.0371 5.12628 21.5028 5.16996L21.6657 7.16331C22.042 7.13255 22.3909 7.1606 22.644 7.24442C22.8826 7.32345 22.9512 7.41789 22.9807 7.49051L24.8338 6.73818ZM15.1152 1.92128C15.4287 1.57628 15.7683 1.2864 16.0833 1.12616C16.3878 0.971273 16.5626 0.985268 16.6814 1.03667L17.4756 -0.798883C16.6281 -1.16558 15.8052 -0.976241 15.1765 -0.65646C14.5584 -0.342031 14.0295 0.142086 13.635 0.576312L15.1152 1.92128Z" fill="white" mask="url(#path-1-inside-1_1701_8329)"/>
</svg>
