<svg width="24" height="22" viewBox="0 0 24 22" fill="none" xmlns="http://www.w3.org/2000/svg">
<mask id="path-1-inside-1_1701_1224" fill="white">
<path fill-rule="evenodd" clip-rule="evenodd" d="M12.2704 19.5184L23.9991 9.75922L12.2704 0V5.74531C11.3888 5.9418 10.5101 6.22627 9.64347 6.60301C3.66105 9.20368 -0.00151852 15.4439 4.72298e-07 21.9997C1.33985 18.781 3.7621 16.1094 6.98436 14.7086C8.71997 13.9541 10.5162 13.6429 12.2704 13.7255V19.5184Z"/>
</mask>
<path d="M23.9991 9.75922L24.6387 10.5279L25.5625 9.75922L24.6387 8.99053L23.9991 9.75922ZM12.2704 19.5184H11.2704V21.6514L12.91 20.2871L12.2704 19.5184ZM12.2704 0L12.9101 -0.768693L11.2704 -2.13299V0H12.2704ZM12.2704 5.74531L12.488 6.72136L13.2704 6.54696V5.74531H12.2704ZM9.64347 6.60301L9.2448 5.68592H9.24479L9.64347 6.60301ZM4.72298e-07 21.9997L-1 21.9999L0.923209 22.384L4.72298e-07 21.9997ZM6.98436 14.7086L6.58568 13.7916H6.58568L6.98436 14.7086ZM12.2704 13.7255H13.2704V12.7716L12.3175 12.7267L12.2704 13.7255ZM23.3595 8.99053L11.6308 18.7497L12.91 20.2871L24.6387 10.5279L23.3595 8.99053ZM11.6308 0.768693L23.3595 10.5279L24.6387 8.99053L12.9101 -0.768693L11.6308 0.768693ZM13.2704 5.74531V0H11.2704V5.74531H13.2704ZM12.0529 4.76926C11.1088 4.97968 10.1694 5.28396 9.2448 5.68592L10.0421 7.5201C10.8507 7.16859 11.6689 6.90393 12.488 6.72136L12.0529 4.76926ZM9.24479 5.68592C2.85585 8.46331 -1.0016 15.093 -1 21.9999L1 21.9995C0.998563 15.7948 4.46625 9.94405 10.0421 7.5201L9.24479 5.68592ZM0.923209 22.384C2.17552 19.3756 4.42475 16.9118 7.38303 15.6257L6.58568 13.7916C3.09944 15.3071 0.504183 18.1864 -0.923208 21.6154L0.923209 22.384ZM7.38303 15.6257C8.97737 14.9326 10.621 14.6489 12.2234 14.7244L12.3175 12.7267C10.4114 12.6368 8.46256 12.9756 6.58568 13.7916L7.38303 15.6257ZM13.2704 19.5184V13.7255H11.2704V19.5184H13.2704Z" fill="white" mask="url(#path-1-inside-1_1701_1224)"/>
</svg>
