<svg width="36" height="28" viewBox="0 0 36 28" fill="none" xmlns="http://www.w3.org/2000/svg">
<path fill-rule="evenodd" clip-rule="evenodd" d="M17.999 0C22.5277 0 26.199 3.58172 26.199 8H33.9973C35.2633 8 36.2108 9.16142 35.9566 10.4016L32.6766 26.4016C32.4859 27.332 31.6671 28 30.7173 28H5.28069C4.33094 28 3.51217 27.3321 3.32143 26.4016L0.0414535 10.4016C-0.212791 9.16143 0.734695 8 2.00071 8H9.79906C9.79906 3.58172 13.4703 0 17.999 0ZM10.7991 8H25.199C25.199 4.15714 21.9989 1 17.999 1C13.9992 1 10.7991 4.15714 10.7991 8ZM1.02108 10.2008C0.893959 9.58071 1.3677 9 2.00071 9H33.9973C34.6303 9 35.1041 9.58071 34.977 10.2008L31.697 26.2008C31.6016 26.666 31.1922 27 30.7173 27H5.28069C4.80581 27 4.39643 26.666 4.30106 26.2008L1.02108 10.2008Z" fill="white"/>
</svg>
