<svg width="28" height="30" viewBox="0 0 28 30" fill="none" xmlns="http://www.w3.org/2000/svg">
<mask id="path-1-inside-1_1701_677" fill="white">
<path fill-rule="evenodd" clip-rule="evenodd" d="M3.45475 24.1463C13.672 24.1463 21.9547 15.8636 21.9547 5.64629C21.9547 3.6772 21.6471 1.77995 21.0773 0C25.2338 2.88977 27.9547 7.70028 27.9547 13.1463C27.9547 21.9828 20.7913 29.1463 11.9547 29.1463C7.22579 29.1463 2.97601 27.0947 0.046875 23.8331C1.15145 24.0388 2.29054 24.1463 3.45475 24.1463Z"/>
</mask>
<path d="M21.0773 0L21.6481 -0.821068L19.2251 -2.50558L20.1249 0.304896L21.0773 0ZM0.046875 23.8331L0.229939 22.85L-2.664 22.3111L-0.69714 24.5012L0.046875 23.8331ZM20.9547 5.64629C20.9547 15.3113 13.1197 23.1463 3.45475 23.1463V25.1463C14.2243 25.1463 22.9547 16.4158 22.9547 5.64629H20.9547ZM20.1249 0.304896C20.6635 1.98747 20.9547 3.78191 20.9547 5.64629H22.9547C22.9547 3.57248 22.6307 1.57243 22.0297 -0.304896L20.1249 0.304896ZM20.5064 0.821068C24.4057 3.53193 26.9547 8.04151 26.9547 13.1463H28.9547C28.9547 7.35904 26.062 2.24761 21.6481 -0.821068L20.5064 0.821068ZM26.9547 13.1463C26.9547 21.4306 20.239 28.1463 11.9547 28.1463V30.1463C21.3436 30.1463 28.9547 22.5351 28.9547 13.1463H26.9547ZM11.9547 28.1463C7.52143 28.1463 3.53837 26.2243 0.79089 23.1649L-0.69714 24.5012C2.41364 27.9652 6.93015 30.1463 11.9547 30.1463V28.1463ZM3.45475 23.1463C2.35225 23.1463 1.27444 23.0445 0.229939 22.85L-0.136189 24.8162C1.02847 25.033 2.22883 25.1463 3.45475 25.1463V23.1463Z" fill="white" mask="url(#path-1-inside-1_1701_677)"/>
</svg>
