<svg width="20" height="24" viewBox="0 0 20 24" fill="none" xmlns="http://www.w3.org/2000/svg">
<path fill-rule="evenodd" clip-rule="evenodd" d="M8.17197 1.5C8.17197 0.671573 8.84355 0 9.67197 0H10.3293C11.1578 0 11.8293 0.671573 11.8293 1.5H17.001C18.1588 1.5 19.0747 2.48001 18.9964 3.63512L17.7437 22.1351C17.6726 23.1848 16.8004 24 15.7483 24H4.25085C3.19873 24 2.32651 23.1848 2.25543 22.1351L1.00271 3.63512C0.924492 2.48001 1.84039 1.5 2.99814 1.5H8.17197ZM17.001 2.5H2.99814C2.41926 2.5 1.96132 2.99001 2.00042 3.56756L3.25314 22.0676C3.28868 22.5924 3.72479 23 4.25085 23H15.7483C16.2744 23 16.7105 22.5924 16.746 22.0676L17.9987 3.56756C18.0378 2.99 17.5799 2.5 17.001 2.5ZM10.3659 5.25H9.63357V20.25H10.3659V5.25ZM13 5H14V20H13V5ZM7 5H6V20H7V5Z" fill="white"/>
</svg>
